<svg id="online-course" xmlns="http://www.w3.org/2000/svg" width="44.974" height="43.877" viewBox="0 0 44.974 43.877">
  <path id="Path_43" data-name="Path 43" d="M44.224,28.766H.75A.754.754,0,0,1,0,28.009V3.029A3.018,3.018,0,0,1,3,0H41.975a3.018,3.018,0,0,1,3,3.029v24.98A.754.754,0,0,1,44.224,28.766ZM1.5,27.252H43.474V3.029a1.508,1.508,0,0,0-1.5-1.515H3A1.508,1.508,0,0,0,1.5,3.029Z" transform="translate(0 0)" fill="#fcf9f7"/>
  <path id="Path_44" data-name="Path 44" d="M41.975,43.57H3a3.018,3.018,0,0,1-3-3.029V36.757A.754.754,0,0,1,.75,36H44.224a.754.754,0,0,1,.75.757v3.784A3.018,3.018,0,0,1,41.975,43.57ZM1.5,37.514v3.027A1.508,1.508,0,0,0,3,42.056H41.975a1.508,1.508,0,0,0,1.5-1.515V37.514Z" transform="translate(0 -8.77)" fill="#fcf9f7"/>
  <path id="Path_45" data-name="Path 45" d="M31.3,41.514H26.757a.757.757,0,1,1,0-1.514H31.3a.757.757,0,1,1,0,1.514Z" transform="translate(-6.541 -9.741)" fill="#fcf9f7"/>
  <path id="Path_46" data-name="Path 46" d="M42.169,29.738H4.748A.753.753,0,0,1,4,28.981V4.757A.753.753,0,0,1,4.748,4H42.169a.753.753,0,0,1,.748.757V28.981A.753.753,0,0,1,42.169,29.738ZM5.5,28.224H41.421V5.514H5.5Z" transform="translate(-0.972 -0.972)" fill="#fcf9f7"/>
  <path id="Path_47" data-name="Path 47" d="M35.548,56.542H16.229a2.271,2.271,0,0,1,0-4.542H35.548a2.271,2.271,0,0,1,0,4.542ZM16.229,53.514a.757.757,0,0,0,0,1.514H35.548a.757.757,0,0,0,0-1.514Z" transform="translate(-3.402 -12.665)" fill="#fcf9f7"/>
  <path id="Path_48" data-name="Path 48" d="M35.411,51.57H18.757a.757.757,0,1,1,0-1.514c2.512,0,3.785-1.783,3.785-5.3A.757.757,0,0,1,23.3,44h7.57a.757.757,0,0,1,.757.757c0,3.516,1.273,5.3,3.785,5.3a.757.757,0,0,1,0,1.514ZM22.444,50.056h9.28a7.244,7.244,0,0,1-1.591-4.542h-6.1A7.248,7.248,0,0,1,22.444,50.056Z" transform="translate(-4.597 -10.721)" fill="#fcf9f7"/>
  <path id="layers_1_" data-name="layers (1)" d="M18.791,8.695l-3-1.5,3-1.5a.731.731,0,0,0,0-1.306L10.173.077a.731.731,0,0,0-.653,0L.9,4.386a.731.731,0,0,0,0,1.306l3,1.5-3,1.5A.731.731,0,0,0,.9,10l3,1.5L.9,13a.731.731,0,0,0,0,1.306L9.52,18.619a.731.731,0,0,0,.653,0l8.618-4.309a.731.731,0,0,0,0-1.306l-3-1.5,3-1.5A.731.731,0,0,0,18.791,8.695ZM9.847,1.547l6.985,3.492L9.847,8.532,2.862,5.039Zm6.985,12.11L9.847,17.15,2.862,13.657l2.676-1.338L9.52,14.31a.731.731,0,0,0,.653,0l3.982-1.991Zm-6.985-.817L2.862,9.348,5.538,8.01,9.52,10a.731.731,0,0,0,.653,0L14.156,8.01l2.676,1.338Zm0,0" transform="translate(12.377 6.549)" fill="#fcf9f7"/>
</svg>
