<svg id="edit" xmlns="http://www.w3.org/2000/svg" width="18" height="18" viewBox="0 0 18 18">
  <path id="Path_88" data-name="Path 88" d="M13.607,11.5H4.562A.563.563,0,0,1,4,10.937V7.563A.563.563,0,0,1,4.562,7H15.437A.563.563,0,0,1,16,7.563V9.25a.563.563,0,0,1-1.125,0V8.125H5.125v2.25h8.482a.562.562,0,1,1,0,1.125Z" transform="translate(-1 -1.75)" fill="#fff"/>
  <path id="Path_89" data-name="Path 89" d="M11.377,15.615H4.612a.563.563,0,0,1,0-1.125h6.765a.563.563,0,0,1,0,1.125Z" transform="translate(-1.013 -3.623)" fill="#fff"/>
  <path id="Path_90" data-name="Path 90" d="M9.142,18.615H4.613a.563.563,0,0,1,0-1.125h4.53a.563.563,0,0,1,0,1.125Z" transform="translate(-1.013 -4.373)" fill="#fff"/>
  <path id="Path_91" data-name="Path 91" d="M12.34,20.919a.563.563,0,0,1-.553-.661l.4-2.254a.57.57,0,0,1,.156-.3l5.569-5.568a1.508,1.508,0,0,1,.747-.439,1.043,1.043,0,0,1,.977.307l.928.928a1.315,1.315,0,0,1,0,1.856l-5.568,5.569a.559.559,0,0,1-.3.156l-2.254.4a.62.62,0,0,1-.1.008Zm2.254-.96H14.6Zm-1.333-1.584-.227,1.288,1.288-.227,5.443-5.443a.189.189,0,0,0,0-.266l-.921-.921c-.007.014-.064.05-.139.125Z" transform="translate(-2.944 -2.919)" fill="#fff"/>
  <path id="Path_92" data-name="Path 92" d="M7.372,16.5H2.062A2.064,2.064,0,0,1,0,14.437V2.062A2.064,2.064,0,0,1,2.062,0H15.937A2.064,2.064,0,0,1,18,2.062V7.53a.562.562,0,1,1-1.125,0V2.062a.939.939,0,0,0-.938-.937H2.062a.939.939,0,0,0-.937.938V14.437a.939.939,0,0,0,.938.937h5.31a.563.563,0,0,1,0,1.125Z" fill="#fff"/>
  <path id="Path_93" data-name="Path 93" d="M17.437,4.625H.562a.563.563,0,0,1,0-1.125H17.437a.563.563,0,0,1,0,1.125Z" transform="translate(0 -0.875)" fill="#fff"/>
</svg>
