<svg xmlns="http://www.w3.org/2000/svg" width="24" height="24" viewBox="0 0 24 24">
  <g id="handshake_1_" data-name="handshake (1)" transform="translate(0.001 -0.5)">
    <path id="Path_81" data-name="Path 81" d="M23.9,105.1l-4.017-5.289a.466.466,0,0,0-.625-.111l-2.594,1.672H13.283a.461.461,0,0,0-.129.022l-2.623.765L7.81,101.4,5.166,99.7a.466.466,0,0,0-.619.1L.1,105.38a.481.481,0,0,0,.059.661l2.329,2.031,2.089,2.853a1.7,1.7,0,0,0,.037,2.345,1.647,1.647,0,0,0,1.009.484,1.719,1.719,0,0,0-.019.258,1.686,1.686,0,0,0,.487,1.192,1.641,1.641,0,0,0,1.176.494h.018c0,.012,0,.023,0,.034a1.687,1.687,0,0,0,.487,1.192,1.642,1.642,0,0,0,1.176.494,1.675,1.675,0,0,0,.26-.021,1.686,1.686,0,0,0,.478,1.026,1.649,1.649,0,0,0,2.352,0l.254-.258.107.087a1.649,1.649,0,0,0,2.332-.019,1.693,1.693,0,0,0,.486-1.218,1.648,1.648,0,0,0,1.2-.493,1.694,1.694,0,0,0,.486-1.218,1.642,1.642,0,0,0,1.2-.493,1.693,1.693,0,0,0,.486-1.218,1.647,1.647,0,0,0,1.2-.493,1.705,1.705,0,0,0,.219-2.11l1.525-3.238,2.293-2A.481.481,0,0,0,23.9,105.1ZM5.015,100.733l1.9,1.225L2.78,107.066,1.123,105.62Zm.268,10.828.574-.582c.017-.018.036-.034.054-.05a.715.715,0,0,1,.392-.161h.012c.021,0,.041,0,.062,0a.713.713,0,0,1,.515.229.757.757,0,0,1-.032,1.038L6.3,112.6a.716.716,0,0,1-1.021,0A.74.74,0,0,1,5.283,111.561ZM6.76,114.53a.738.738,0,0,1,0-1.035l1.113-1.128a.722.722,0,0,1,.821-.144.731.731,0,0,1,.4.755.776.776,0,0,1-.215.441l-1.1,1.11a.715.715,0,0,1-1.021,0Zm1.68,1.719a.738.738,0,0,1,0-1.035l1.113-1.128a.723.723,0,0,1,.873-.116.731.731,0,0,1,.345.739.777.777,0,0,1-.214.429l-1.095,1.11a.715.715,0,0,1-1.021,0Zm1.914,1.5a.739.739,0,0,1,0-1.035l.574-.582c.017-.018.036-.034.054-.05h0a.715.715,0,0,1,.32-.151h.008c.02,0,.041-.007.061-.009H11.4l.051,0a.713.713,0,0,1,.515.229.657.657,0,0,1,.047.055.763.763,0,0,1-.081.985l-.554.561A.716.716,0,0,1,10.354,117.748Zm8.779-5.323a.716.716,0,0,1-1.021,0,.429.429,0,0,0-.032-.029l-3.026-3.1a.466.466,0,0,0-.666,0,.481.481,0,0,0,0,.674l3.059,3.132h0a.74.74,0,0,1,0,1.035.715.715,0,0,1-1.021,0l-2.046-2.1a.466.466,0,0,0-.665,0,.482.482,0,0,0,0,.675l2.015,2.063a.45.45,0,0,0,.033.037.74.74,0,0,1,0,1.035.716.716,0,0,1-1.021,0L13.618,114.7a.466.466,0,0,0-.666,0,.481.481,0,0,0,0,.674l1.086,1.112a.422.422,0,0,0,.033.037.74.74,0,0,1,0,1.035.716.716,0,0,1-1.021,0,1.043,1.043,0,0,0-.107-.086c-.031-.024-.039-.04-.023-.078s.039-.073.054-.112.031-.087.045-.132a1.742,1.742,0,0,0,.061-.734,1.682,1.682,0,0,0-.7-1.161,1.639,1.639,0,0,0-.7-.275,1.717,1.717,0,0,0-.4-1.535,1.641,1.641,0,0,0-1.185-.527h-.05a1.7,1.7,0,0,0-.445-1.192,1.641,1.641,0,0,0-1.185-.527,1.67,1.67,0,0,0-.4.043,1.679,1.679,0,0,0-.55-1.022,1.637,1.637,0,0,0-1.064-.409,1.654,1.654,0,0,0-1.136.433L3.435,107.76l4.352-5.374,1.387.385-1.811,3.24a1.694,1.694,0,0,0-.156,1.28,1.671,1.671,0,0,0,.783,1.017l.073.04.006,0a1.66,1.66,0,0,0,.2.085,1.631,1.631,0,0,0,.985.031,1.656,1.656,0,0,0,1-.794l1.177-2.105,2.1.151,5.6,5.672A.74.74,0,0,1,19.133,112.426Zm.2-2.186-5.251-5.321a.419.419,0,0,0-.031-.029.467.467,0,0,0-.268-.109l-2.574-.185a.477.477,0,0,0-.443.241L9.438,107.2a.719.719,0,0,1-.436.344.709.709,0,0,1-.548-.069.726.726,0,0,1-.34-.441.735.735,0,0,1,.068-.556l1.767-3.16.716-.209.014,0,2.672-.782h3.229l4.031,5.193Zm1.9-3.47-3.727-4.8,1.9-1.226,3.483,4.585Zm0,0" transform="translate(0 -94.416)" fill="#fff"/>
    <path id="Path_82" data-name="Path 82" d="M300.621,33.083a.476.476,0,0,0,.337-.14l3.258-3.258a.477.477,0,0,0-.675-.675l-3.258,3.258a.477.477,0,0,0,.337.814Zm0,0" transform="translate(-286.116 -27.023)" fill="#fff"/>
    <path id="Path_83" data-name="Path 83" d="M126.593,32.943a.477.477,0,1,0,.675-.675l-3.258-3.258a.477.477,0,0,0-.675.675Zm0,0" transform="translate(-117.437 -27.023)" fill="#fff"/>
    <path id="Path_84" data-name="Path 84" d="M246.438,44.349a.477.477,0,0,0,.477-.477v-2.7a.477.477,0,0,0-.954,0v2.7A.477.477,0,0,0,246.438,44.349Zm0,0" transform="translate(-234.438 -38.289)" fill="#fff"/>
    <path id="Path_85" data-name="Path 85" d="M246.022,1.158A.477.477,0,1,0,246.2.579a.48.48,0,0,0-.176.579Zm0,0" transform="translate(-234.463 0)" fill="#fff"/>
  </g>
</svg>
