<svg id="job" xmlns="http://www.w3.org/2000/svg" width="43.9" height="43.9" viewBox="0 0 43.9 43.9">
  <g id="Group_18" data-name="Group 18" transform="translate(8.025)">
    <g id="Group_17" data-name="Group 17">
      <path id="Path_28" data-name="Path 28" d="M129.287,0h-30.7A2.583,2.583,0,0,0,96,2.572V5.487a.862.862,0,0,0,1.725,0V2.572a.861.861,0,0,1,.862-.857h30.7a.861.861,0,0,1,.862.857V41.327a.861.861,0,0,1-.862.857h-30.7a.861.861,0,0,1-.862-.857V38.555a.862.862,0,0,0-1.725,0v2.772A2.583,2.583,0,0,0,98.587,43.9h30.7a2.583,2.583,0,0,0,2.587-2.572V2.572A2.583,2.583,0,0,0,129.287,0Z" transform="translate(-96)" fill="#fcf9f7"/>
    </g>
  </g>
  <g id="Group_20" data-name="Group 20" transform="translate(16.471 33.13)">
    <g id="Group_19" data-name="Group 19">
      <path id="Path_29" data-name="Path 29" d="M204.793,386H184.729a.836.836,0,0,0,0,1.672h20.064a.836.836,0,0,0,0-1.672Z" transform="translate(-183.893 -386)" fill="#fcf9f7"/>
    </g>
  </g>
  <g id="Group_22" data-name="Group 22" transform="translate(36.534 37.713)">
    <g id="Group_21" data-name="Group 21">
      <path id="Path_30" data-name="Path 30" d="M425.317,438.245a.835.835,0,1,0,.245.591A.841.841,0,0,0,425.317,438.245Z" transform="translate(-423.89 -438)" fill="#fcf9f7"/>
    </g>
  </g>
  <g id="Group_24" data-name="Group 24" transform="translate(16.062 37.713)">
    <g id="Group_23" data-name="Group 23">
      <path id="Path_31" data-name="Path 31" d="M201.374,438H184.729a.836.836,0,0,0,0,1.672h16.645a.836.836,0,0,0,0-1.672Z" transform="translate(-183.893 -438)" fill="#fcf9f7"/>
    </g>
  </g>
  <g id="Group_26" data-name="Group 26" transform="translate(13.624 7.662)">
    <g id="Group_25" data-name="Group 25">
      <path id="Path_32" data-name="Path 32" d="M165.077,87.767a9.018,9.018,0,0,0-6.187,15.583.822.822,0,0,0,.1.09,9.005,9.005,0,0,0,12.18,0,.828.828,0,0,0,.1-.09,9.018,9.018,0,0,0-6.187-15.583Zm0,16.372a7.314,7.314,0,0,1-4.551-1.583,5.155,5.155,0,0,1,9.1,0A7.314,7.314,0,0,1,165.077,104.139Zm-1.76-7.749v-.649a1.76,1.76,0,1,1,3.519,0v.649a1.76,1.76,0,1,1-3.519,0Zm7.534,4.942a6.767,6.767,0,0,0-3.2-2.682,3.416,3.416,0,0,0,.853-2.26v-.649a3.432,3.432,0,1,0-6.863,0v.649a3.416,3.416,0,0,0,.853,2.26,6.767,6.767,0,0,0-3.2,2.682,7.35,7.35,0,1,1,11.548,0Z" transform="translate(-156.055 -87.767)" fill="#fcf9f7"/>
    </g>
  </g>
  <g id="Group_28" data-name="Group 28" transform="translate(0 3.344)">
    <g id="Group_27" data-name="Group 27">
      <path id="Path_33" data-name="Path 33" d="M22.068,40A13.239,13.239,0,0,0,9.053,53.422a13.56,13.56,0,0,0,4.985,10.556l-9.7,10.006a1.528,1.528,0,0,1-2.206,0,1.644,1.644,0,0,1,0-2.275l4.962-5.118a.881.881,0,0,0,0-1.219.818.818,0,0,0-1.182,0L.947,70.491a3.407,3.407,0,0,0,0,4.714,3.167,3.167,0,0,0,4.571,0L15.441,64.97a12.64,12.64,0,0,0,6.627,1.875,13.429,13.429,0,0,0,0-26.845Zm0,25.121a11.7,11.7,0,0,1,0-23.4,11.7,11.7,0,0,1,0,23.4Z" transform="translate(0 -40)" fill="#fcf9f7"/>
    </g>
  </g>
  <g id="Group_30" data-name="Group 30" transform="translate(8.517 25.74)">
    <g id="Group_29" data-name="Group 29">
      <path id="Path_34" data-name="Path 34" d="M100.657,300.145a.835.835,0,1,0,.245.591A.841.841,0,0,0,100.657,300.145Z" transform="translate(-99.23 -299.9)" fill="#fcf9f7"/>
    </g>
  </g>
</svg>
