<svg id="laptop" xmlns="http://www.w3.org/2000/svg" width="54.203" height="37.381" viewBox="0 0 54.203 37.381">
  <path id="Path_49" data-name="Path 49" d="M50.5,50.215H49.145V22.773a2.45,2.45,0,0,0-2.435-2.46H7.489a2.45,2.45,0,0,0-2.435,2.46V50.215H3.7a3.74,3.74,0,0,0,0,7.479H50.5a3.74,3.74,0,0,0,0-7.479ZM6.536,22.773a.959.959,0,0,1,.953-.963H46.711a.959.959,0,0,1,.953.963V50.215H6.536ZM35.654,51.712a2.224,2.224,0,0,1-2.092,1.494H20.638a2.224,2.224,0,0,1-2.091-1.493ZM50.5,56.2H3.7a2.242,2.242,0,0,1,0-4.484H17.012a3.717,3.717,0,0,0,3.626,2.99H33.562a3.716,3.716,0,0,0,3.626-2.99H50.5a2.242,2.242,0,0,1,0,4.484Z" transform="translate(0.001 -20.313)" fill="#fcf9f7"/>
  <path id="Path_50" data-name="Path 50" d="M57.079,52.119V29.062a.754.754,0,0,0-.216-.53.732.732,0,0,0-.522-.219H20.675a.743.743,0,0,0-.738.749V52.119a.744.744,0,0,0,.738.749H56.342A.743.743,0,0,0,57.079,52.119ZM55.6,51.37H21.412V29.81H55.6Z" transform="translate(-11.407 -24.89)" fill="#fcf9f7"/>
</svg>
