<svg id="Page-1" xmlns="http://www.w3.org/2000/svg" width="38.392" height="43.877" viewBox="0 0 38.392 43.877">
  <g id="_061---tip-alert" data-name="061---tip-alert" transform="translate(0 0)">
    <path id="Shape" d="M0,12.7V32.444A3.678,3.678,0,0,0,3.692,36.1h7.383a.753.753,0,0,1,.591.293l5.827,7.693a2.232,2.232,0,0,0,3.432-.029l5.8-7.664a.755.755,0,0,1,.591-.293H34.7a3.678,3.678,0,0,0,3.692-3.656V12.7A3.678,3.678,0,0,0,34.7,9.044H29.863a11.1,11.1,0,0,0-21.343,0H3.692A3.678,3.678,0,0,0,0,12.7ZM18.732,2.473a9.651,9.651,0,0,1,7.085,2.613,9.463,9.463,0,0,1,2.977,6.883,9.355,9.355,0,0,1-3.041,6.93,9.243,9.243,0,0,0-2.865,6.8v.9H15.5v-.777A9.519,9.519,0,0,0,12.6,18.86a9.435,9.435,0,0,1-2.4-10.2,9.581,9.581,0,0,1,8.536-6.185Zm2.679,29.24h-4.43A1.47,1.47,0,0,1,15.5,30.25V28.056h7.383V30.25A1.47,1.47,0,0,1,21.411,31.713ZM1.477,12.7a2.2,2.2,0,0,1,2.215-2.194H8.23c-.021.153-.049.3-.063.459a10.86,10.86,0,0,0,3.416,8.958,8.059,8.059,0,0,1,2.445,5.895V30.25a2.93,2.93,0,0,0,2.215,2.821v.835a.738.738,0,0,0,1.477,0v-.731h2.953v.731a.738.738,0,0,0,1.477,0v-.835a2.93,2.93,0,0,0,2.215-2.821V25.694a7.779,7.779,0,0,1,2.4-5.727,10.8,10.8,0,0,0,3.509-8,11.027,11.027,0,0,0-.109-1.463H34.7A2.2,2.2,0,0,1,36.915,12.7V32.444A2.2,2.2,0,0,1,34.7,34.638H27.317a2.244,2.244,0,0,0-1.772.878L19.766,43.15a.8.8,0,0,1-1.116.029l-5.8-7.664a2.241,2.241,0,0,0-1.772-.878H3.692a2.2,2.2,0,0,1-2.215-2.194Z" transform="translate(0 -0.999)" fill="#fcf9f7"/>
    <path id="Shape-2" data-name="Shape" d="M23.731,29a.731.731,0,0,0-.731.731v2.194a.731.731,0,1,0,1.463,0V29.731A.731.731,0,0,0,23.731,29Z" transform="translate(-6.012 -8.524)" fill="#fcf9f7"/>
    <path id="Shape-3" data-name="Shape" d="M23,24.463a.731.731,0,1,0,1.463,0v-.731a.731.731,0,0,0-1.463,0Z" transform="translate(-6.012 -6.911)" fill="#fcf9f7"/>
    <path id="Shape-4" data-name="Shape" d="M27.731,32.656a.731.731,0,0,0,.731-.731V29.731a.731.731,0,0,0-1.463,0v2.194A.731.731,0,0,0,27.731,32.656Z" transform="translate(-7.058 -8.524)" fill="#fcf9f7"/>
    <path id="Shape-5" data-name="Shape" d="M27.731,25.194a.731.731,0,0,0,.731-.731v-.731a.731.731,0,0,0-1.463,0v.731A.731.731,0,0,0,27.731,25.194Z" transform="translate(-7.058 -6.911)" fill="#fcf9f7"/>
    <path id="Shape-6" data-name="Shape" d="M8.387,6.387a.731.731,0,0,0,.457-1.3L5.188,2.16A.731.731,0,1,0,4.274,3.3L7.93,6.227A.731.731,0,0,0,8.387,6.387Z" transform="translate(-1.075 -1.268)" fill="#fcf9f7"/>
    <path id="Shape-7" data-name="Shape" d="M42.188,6.227,45.845,3.3A.731.731,0,1,0,44.93,2.16L41.274,5.085a.731.731,0,1,0,.914,1.142Z" transform="translate(-10.652 -1.268)" fill="#fcf9f7"/>
    <path id="Shape-8" data-name="Shape" d="M4.16,35.113a.731.731,0,0,0,1.028.114L8.845,32.3A.731.731,0,1,0,7.93,31.16L4.274,34.085a.731.731,0,0,0-.114,1.028Z" transform="translate(-1.075 -9.061)" fill="#fcf9f7"/>
    <path id="Shape-9" data-name="Shape" d="M44.93,35.227a.731.731,0,1,0,.914-1.142L42.188,31.16a.731.731,0,1,0-.914,1.142Z" transform="translate(-10.652 -9.061)" fill="#fcf9f7"/>
    <path id="Shape-10" data-name="Shape" d="M16.591,11.836a.714.714,0,0,0,.14.014.731.731,0,0,0,.717-.592,5.8,5.8,0,0,1,3.218-3.851.731.731,0,0,0-.558-1.352,7.181,7.181,0,0,0-4.1,4.925A.731.731,0,0,0,16.591,11.836Z" transform="translate(-4.169 -2.343)" fill="#fcf9f7"/>
    <path id="Shape-11" data-name="Shape" d="M4.731,18.463H6.925a.731.731,0,1,0,0-1.463H4.731a.731.731,0,1,0,0,1.463Z" transform="translate(-1.075 -5.299)" fill="#fcf9f7"/>
    <path id="Shape-12" data-name="Shape" d="M43.731,18.463h2.194a.731.731,0,1,0,0-1.463H43.731a.731.731,0,1,0,0,1.463Z" transform="translate(-11.189 -5.299)" fill="#fcf9f7"/>
  </g>
</svg>
