<svg xmlns="http://www.w3.org/2000/svg" width="29" height="14" viewBox="0 0 29 14">
  <g id="link_1_" data-name="link (1)" transform="translate(0 -106.667)">
    <g id="Group_2" data-name="Group 2" transform="translate(0 106.667)">
      <g id="Group_1" data-name="Group 1" transform="translate(0 0)">
        <path id="Path_3" data-name="Path 3" d="M2.85,113.667a4.507,4.507,0,0,1,4.65-4.34h6v-2.66h-6a7.017,7.017,0,1,0,0,14h6v-2.66h-6A4.507,4.507,0,0,1,2.85,113.667Z" transform="translate(0 -106.667)" fill="#2d2e33"/>
        <rect id="Rectangle_6" data-name="Rectangle 6" width="11.999" height="3" transform="translate(8.5 5.5)" fill="#2d2e33"/>
        <path id="Path_4" data-name="Path 4" d="M240.667,106.667h-6v2.66h6a4.35,4.35,0,1,1,0,8.68h-6v2.66h6a7.017,7.017,0,1,0,0-14Z" transform="translate(-219.166 -106.667)" fill="#2d2e33"/>
      </g>
    </g>
  </g>
</svg>
