<svg xmlns="http://www.w3.org/2000/svg" width="11" height="18" viewBox="0 0 11 18">
  <g id="microphone" transform="translate(-103.571)">
    <path id="Path_86" data-name="Path 86" d="M114.571,224.6a.541.541,0,0,0-1.082,0,4.419,4.419,0,0,1-8.835,0,.541.541,0,0,0-1.082,0,5.421,5.421,0,0,0,4.959,5.333v1.089h-.546a2.684,2.684,0,0,0-2.715,2.646.534.534,0,0,0,.541.527h6.522a.534.534,0,0,0,.541-.527,2.684,2.684,0,0,0-2.715-2.646h-.546v-1.089A5.421,5.421,0,0,0,114.571,224.6Zm-2.872,8.54h-5.255a1.633,1.633,0,0,1,1.541-1.063h2.174A1.633,1.633,0,0,1,111.7,233.139Z" transform="translate(0 -216.194)" fill="#fff"/>
    <path id="Path_87" data-name="Path 87" d="M169,11.646a3.252,3.252,0,0,0,3.316-3.175v-5.3a3.319,3.319,0,0,0-6.632,0v5.3A3.252,3.252,0,0,0,169,11.646Zm0-10.591a2.172,2.172,0,0,1,2.215,2.12v0h-.594a.528.528,0,1,0,0,1.055h.594V5.3h-.594a.528.528,0,1,0,0,1.055h.594V7.414h-.594a.528.528,0,1,0,0,1.055h.594v0a2.217,2.217,0,0,1-4.429,0v0h.594a.528.528,0,1,0,0-1.055h-.594V6.35h.594a.528.528,0,1,0,0-1.055h-.594V4.232h.594a.528.528,0,1,0,0-1.055h-.594v0A2.172,2.172,0,0,1,169,1.055Z" transform="translate(-59.932)" fill="#fff"/>
  </g>
</svg>
