<svg id="newspaper" xmlns="http://www.w3.org/2000/svg" width="34" height="32" viewBox="0 0 34 32">
  <path id="Path_55" data-name="Path 55" d="M32.284,0H7.408A1.733,1.733,0,0,0,5.692,1.745v2.65H1.716A1.733,1.733,0,0,0,0,6.14V28.6A3.377,3.377,0,0,0,3.32,32H20.962a.507.507,0,0,0,0-1.013H5.723A3.42,3.42,0,0,0,6.688,28.6V16.754a.5.5,0,1,0-1,0V28.6a2.371,2.371,0,0,1-2.335,2.388H3.344A2.371,2.371,0,0,1,1,28.6V6.14a.727.727,0,0,1,.72-.732H5.692v9.455a.5.5,0,1,0,1,0V1.745a.727.727,0,0,1,.72-.732H32.284a.727.727,0,0,1,.72.732V28.6a2.371,2.371,0,0,1-2.348,2.388H22.822a.507.507,0,0,0,0,1.013h7.834A3.377,3.377,0,0,0,34,28.6V1.745A1.733,1.733,0,0,0,32.284,0Zm0,0" fill="#2d2e33"/>
  <path id="Path_56" data-name="Path 56" d="M147.773,170.25h6.947a1.2,1.2,0,0,0,1.2-1.2V162.1a1.2,1.2,0,0,0-1.2-1.2h-6.947a1.2,1.2,0,0,0-1.2,1.2v6.947A1.2,1.2,0,0,0,147.773,170.25Zm-.185-8.146a.186.186,0,0,1,.185-.185h6.947a.186.186,0,0,1,.185.185v6.947a.186.186,0,0,1-.185.185h-6.947a.186.186,0,0,1-.185-.185Zm0,0" transform="translate(-136.902 -150.039)" fill="#2d2e33"/>
  <path id="Path_57" data-name="Path 57" d="M305.2,161.919h9.4a.507.507,0,0,0,0-1.013h-9.4a.507.507,0,1,0,0,1.013Zm0,0" transform="translate(-284.692 -150.039)" fill="#2d2e33"/>
  <path id="Path_58" data-name="Path 58" d="M305.2,223.6h9.4a.507.507,0,0,0,0-1.013h-9.4a.507.507,0,1,0,0,1.013Zm0,0" transform="translate(-284.692 -207.553)" fill="#2d2e33"/>
  <path id="Path_59" data-name="Path 59" d="M305.2,285.275h9.4a.507.507,0,0,0,0-1.013h-9.4a.507.507,0,1,0,0,1.013Zm0,0" transform="translate(-284.692 -265.063)" fill="#2d2e33"/>
  <path id="Path_60" data-name="Path 60" d="M147.081,346.951h20.08a.507.507,0,0,0,0-1.013h-20.08a.507.507,0,1,0,0,1.013Zm0,0" transform="translate(-137.254 -322.574)" fill="#2d2e33"/>
  <path id="Path_61" data-name="Path 61" d="M147.081,408.63h20.08a.507.507,0,0,0,0-1.013h-20.08a.507.507,0,1,0,0,1.013Zm0,0" transform="translate(-137.254 -380.088)" fill="#2d2e33"/>
  <path id="Path_62" data-name="Path 62" d="M146.766,43.96V38.608a.273.273,0,0,1,.157-.251.774.774,0,0,1,.379-.087.8.8,0,0,1,.454.107,1.341,1.341,0,0,1,.346.462l1.592,3.076V38.6a.265.265,0,0,1,.157-.247.913.913,0,0,1,.759,0,.265.265,0,0,1,.157.247V43.96a.276.276,0,0,1-.161.247.748.748,0,0,1-.375.091.644.644,0,0,1-.619-.338l-1.773-3.315V43.96a.275.275,0,0,1-.161.247.829.829,0,0,1-.755,0A.276.276,0,0,1,146.766,43.96Zm0,0" transform="translate(-137.041 -35.685)" fill="#2d2e33"/>
  <path id="Path_63" data-name="Path 63" d="M220.645,43.96V38.608a.281.281,0,0,1,.14-.247.593.593,0,0,1,.33-.091h2.936a.278.278,0,0,1,.251.14.6.6,0,0,1,.087.322.61.61,0,0,1-.091.338.281.281,0,0,1-.247.14h-2.334v1.649h1.254a.288.288,0,0,1,.247.128.507.507,0,0,1,.091.3.5.5,0,0,1-.087.285.285.285,0,0,1-.251.128h-1.254v1.658h2.334a.282.282,0,0,1,.247.14.61.61,0,0,1,.091.338.6.6,0,0,1-.087.322.278.278,0,0,1-.251.14h-2.936a.593.593,0,0,1-.33-.09A.281.281,0,0,1,220.645,43.96Zm0,0" transform="translate(-206.023 -35.685)" fill="#2d2e33"/>
  <path id="Path_64" data-name="Path 64" d="M284.023,38.7a.361.361,0,0,1,.223-.3.915.915,0,0,1,.462-.128q.3,0,.355.214l1.3,4.47.7-2.87q.074-.3.528-.3t.52.3l.7,2.87,1.3-4.47q.058-.214.355-.214a.915.915,0,0,1,.462.128.361.361,0,0,1,.223.3.316.316,0,0,1-.016.1l-1.633,5.187q-.124.363-.7.363a1.016,1.016,0,0,1-.445-.095.4.4,0,0,1-.239-.268l-.528-2.227-.536,2.227a.4.4,0,0,1-.239.268,1.016,1.016,0,0,1-.445.095,1.036,1.036,0,0,1-.453-.095.428.428,0,0,1-.247-.268L284.04,38.8A.309.309,0,0,1,284.023,38.7Zm0,0" transform="translate(-265.246 -35.685)" fill="#2d2e33"/>
  <path id="Path_65" data-name="Path 65" d="M393.68,42.778a.642.642,0,0,1,.144-.384.408.408,0,0,1,.326-.194.422.422,0,0,1,.243.1,2.8,2.8,0,0,1,.264.227,1.211,1.211,0,0,0,.367.227,1.321,1.321,0,0,0,.528.1,1.137,1.137,0,0,0,.66-.182.608.608,0,0,0,.264-.536.719.719,0,0,0-.144-.441,1.148,1.148,0,0,0-.379-.322q-.235-.128-.515-.247t-.565-.268a3.293,3.293,0,0,1-.519-.334,1.334,1.334,0,0,1-.379-.495,1.647,1.647,0,0,1-.144-.7,1.665,1.665,0,0,1,.177-.783,1.349,1.349,0,0,1,.474-.527,2.219,2.219,0,0,1,.635-.276,2.843,2.843,0,0,1,.718-.088,3.7,3.7,0,0,1,.454.03,4.2,4.2,0,0,1,.507.1,1.067,1.067,0,0,1,.437.212.434.434,0,0,1,.169.339.751.751,0,0,1-.115.38.351.351,0,0,1-.313.2,1.553,1.553,0,0,1-.4-.157,1.689,1.689,0,0,0-.734-.157,1.2,1.2,0,0,0-.689.169.553.553,0,0,0-.045.882,1.553,1.553,0,0,0,.491.289q.292.111.635.28a5.426,5.426,0,0,1,.635.367,1.541,1.541,0,0,1,.491.573,1.859,1.859,0,0,1,.2.879,1.621,1.621,0,0,1-.54,1.305,2.122,2.122,0,0,1-1.423.46,2.658,2.658,0,0,1-1.344-.322Q393.679,43.158,393.68,42.778Zm0,0" transform="translate(-367.671 -35.113)" fill="#2d2e33"/>
</svg>
