<svg id="newspaper" xmlns="http://www.w3.org/2000/svg" width="42.516" height="39.549" viewBox="0 0 42.516 39.549">
  <path id="Path_55" data-name="Path 55" d="M40.369,0H9.264A2.154,2.154,0,0,0,7.118,2.157V5.432H2.146A2.154,2.154,0,0,0,0,7.589V35.346a4.2,4.2,0,0,0,4.152,4.2H26.212a.626.626,0,0,0,0-1.252H7.157a4.2,4.2,0,0,0,1.207-2.951V20.707a.623.623,0,1,0-1.246,0v14.64A2.947,2.947,0,0,1,4.2,38.3H4.182a2.947,2.947,0,0,1-2.936-2.95V7.589a.9.9,0,0,1,.9-.905H7.118V18.369a.623.623,0,1,0,1.246,0V2.157a.9.9,0,0,1,.9-.905H40.369a.9.9,0,0,1,.9.905V35.346A2.947,2.947,0,0,1,38.334,38.3h-9.8a.626.626,0,0,0,0,1.252h9.8a4.2,4.2,0,0,0,4.182-4.2V2.157A2.154,2.154,0,0,0,40.369,0Zm0,0" fill="#fcf9f7"/>
  <path id="Path_56" data-name="Path 56" d="M148.055,172.455h8.586a1.483,1.483,0,0,0,1.481-1.481v-8.586a1.483,1.483,0,0,0-1.481-1.481h-8.586a1.483,1.483,0,0,0-1.481,1.481v8.586A1.483,1.483,0,0,0,148.055,172.455Zm-.229-10.067a.229.229,0,0,1,.229-.229h8.586a.23.23,0,0,1,.229.229v8.586a.23.23,0,0,1-.229.229h-8.586a.23.23,0,0,1-.229-.229Zm0,0" transform="translate(-134.426 -147.475)" fill="#fcf9f7"/>
  <path id="Path_57" data-name="Path 57" d="M305.317,162.158h11.619a.626.626,0,0,0,0-1.252H305.317a.626.626,0,0,0,0,1.252Zm0,0" transform="translate(-279.48 -147.475)" fill="#fcf9f7"/>
  <path id="Path_58" data-name="Path 58" d="M305.317,223.838h11.619a.626.626,0,0,0,0-1.252H305.317a.626.626,0,0,0,0,1.252Zm0,0" transform="translate(-279.48 -204.007)" fill="#fcf9f7"/>
  <path id="Path_59" data-name="Path 59" d="M305.317,285.514h11.619a.626.626,0,0,0,0-1.252H305.317a.626.626,0,0,0,0,1.252Zm0,0" transform="translate(-279.48 -260.534)" fill="#fcf9f7"/>
  <path id="Path_60" data-name="Path 60" d="M147.2,347.19h24.817a.626.626,0,0,0,0-1.252H147.2a.626.626,0,0,0,0,1.252Zm0,0" transform="translate(-134.561 -317.062)" fill="#fcf9f7"/>
  <path id="Path_61" data-name="Path 61" d="M147.2,408.869h24.817a.626.626,0,0,0,0-1.252H147.2a.626.626,0,1,0,0,1.252Zm0,0" transform="translate(-134.561 -373.593)" fill="#fcf9f7"/>
  <path id="Path_62" data-name="Path 62" d="M146.766,45.3V38.688a.337.337,0,0,1,.194-.311.956.956,0,0,1,.469-.107.991.991,0,0,1,.561.133,1.657,1.657,0,0,1,.428.571l1.967,3.8v-4.1a.328.328,0,0,1,.194-.306,1.128,1.128,0,0,1,.938,0,.328.328,0,0,1,.194.306V45.3a.341.341,0,0,1-.2.306.925.925,0,0,1-.464.112.8.8,0,0,1-.765-.418l-2.191-4.1v4.1a.34.34,0,0,1-.2.306,1.025,1.025,0,0,1-.933,0A.341.341,0,0,1,146.766,45.3Zm0,0" transform="translate(-134.587 -35.075)" fill="#fcf9f7"/>
  <path id="Path_63" data-name="Path 63" d="M220.645,45.3V38.688a.347.347,0,0,1,.173-.306.733.733,0,0,1,.408-.112h3.629a.344.344,0,0,1,.311.173.74.74,0,0,1,.107.4.754.754,0,0,1-.112.418.347.347,0,0,1-.306.173H221.97V41.47h1.549a.356.356,0,0,1,.306.158.626.626,0,0,1,.112.372.614.614,0,0,1-.107.352.352.352,0,0,1-.311.158H221.97v2.049h2.885a.348.348,0,0,1,.306.173.754.754,0,0,1,.112.418.74.74,0,0,1-.107.4.343.343,0,0,1-.311.173h-3.629a.733.733,0,0,1-.408-.112A.347.347,0,0,1,220.645,45.3Zm0,0" transform="translate(-202.334 -35.075)" fill="#fcf9f7"/>
  <path id="Path_64" data-name="Path 64" d="M284.023,38.8a.446.446,0,0,1,.275-.372,1.131,1.131,0,0,1,.571-.158q.367,0,.438.265l1.611,5.525.866-3.547q.091-.367.652-.367t.642.367l.866,3.547,1.61-5.525q.071-.265.439-.265a1.132,1.132,0,0,1,.571.158.446.446,0,0,1,.275.372.39.39,0,0,1-.02.122L290.8,45.333q-.153.449-.866.449a1.256,1.256,0,0,1-.55-.117.5.5,0,0,1-.3-.331l-.652-2.752-.663,2.752a.5.5,0,0,1-.3.331,1.256,1.256,0,0,1-.55.117,1.28,1.28,0,0,1-.561-.117.529.529,0,0,1-.306-.331l-2.018-6.411A.38.38,0,0,1,284.023,38.8Zm0,0" transform="translate(-260.471 -35.075)" fill="#fcf9f7"/>
  <path id="Path_65" data-name="Path 65" d="M393.68,43.986a.794.794,0,0,1,.178-.474.5.5,0,0,1,.4-.239.522.522,0,0,1,.3.127,3.465,3.465,0,0,1,.326.28,1.5,1.5,0,0,0,.454.281,1.633,1.633,0,0,0,.652.127,1.405,1.405,0,0,0,.815-.224.751.751,0,0,0,.326-.662.889.889,0,0,0-.178-.545,1.418,1.418,0,0,0-.469-.4q-.29-.158-.637-.306t-.7-.331a4.067,4.067,0,0,1-.642-.413,1.649,1.649,0,0,1-.469-.612,2.035,2.035,0,0,1-.178-.871,2.058,2.058,0,0,1,.219-.967,1.667,1.667,0,0,1,.586-.652,2.742,2.742,0,0,1,.785-.341,3.514,3.514,0,0,1,.887-.109,4.567,4.567,0,0,1,.561.037,5.188,5.188,0,0,1,.627.12,1.319,1.319,0,0,1,.54.261.536.536,0,0,1,.209.419.928.928,0,0,1-.142.47.434.434,0,0,1-.387.242,1.919,1.919,0,0,1-.5-.194,2.088,2.088,0,0,0-.907-.194,1.478,1.478,0,0,0-.851.209.683.683,0,0,0-.056,1.091,1.917,1.917,0,0,0,.606.357q.361.137.785.347a6.714,6.714,0,0,1,.785.454,1.9,1.9,0,0,1,.606.708,2.3,2.3,0,0,1,.245,1.086,2,2,0,0,1-.667,1.613,2.622,2.622,0,0,1-1.758.568,3.284,3.284,0,0,1-1.661-.4Q393.679,44.456,393.68,43.986Zm0,0" transform="translate(-361.04 -34.513)" fill="#fcf9f7"/>
</svg>
