<svg xmlns="http://www.w3.org/2000/svg" width="29.894" height="29.894" viewBox="0 0 29.894 29.894">
  <path id="Icon_material-slow-motion-video" data-name="Icon material-slow-motion-video" d="M19.558,14.7l-4.57-3.44v13.52l4.57-3.44,4.42-3.32Zm0,0-4.57-3.44v13.52l4.57-3.44,4.42-3.32Zm0,0-4.57-3.44v13.52l4.57-3.44,4.42-3.32ZM16.486,6.109V3.075a14.888,14.888,0,0,0-7.972,3.32l2.128,2.148A11.884,11.884,0,0,1,16.486,6.109ZM8.529,10.661,6.387,8.528A14.965,14.965,0,0,0,3.075,16.52H6.1A11.945,11.945,0,0,1,8.529,10.661ZM6.1,19.524H3.075a14.965,14.965,0,0,0,3.312,7.992l2.143-2.148A11.835,11.835,0,0,1,6.1,19.524ZM8.514,29.649a14.937,14.937,0,0,0,7.972,3.32V29.935A11.884,11.884,0,0,1,10.642,27.5L8.514,29.649ZM32.969,18.022A15.031,15.031,0,0,1,19.558,32.969V29.935a12.02,12.02,0,0,0,0-23.825V3.075A15.031,15.031,0,0,1,32.969,18.022Z" transform="translate(-3.075 -3.075)" fill="#2d2e33"/>
</svg>
