<svg xmlns="http://www.w3.org/2000/svg" width="34" height="32" viewBox="0 0 34 32">
  <g id="promotion" transform="translate(0 0)">
    <path id="Path_72" data-name="Path 72" d="M122.954,290.808a.66.66,0,1,0-.9-.242A.661.661,0,0,0,122.954,290.808Zm0,0" transform="translate(-113.862 -270.449)" fill="#fff"/>
    <path id="Path_73" data-name="Path 73" d="M6.34,45.8l3.326,5.761a2.642,2.642,0,1,0,4.576-2.642L12.26,45.483l1.716-.991a.661.661,0,0,0,.242-.9L13.359,42.1,26.01,39.621a1.981,1.981,0,0,0,1.606-2.969l-2.2-3.8,1.4-2.125a.661.661,0,0,0,.021-.694l-1.321-2.288a.662.662,0,0,0-.612-.329l-2.541.152-2.437-4.221a1.964,1.964,0,0,0-1.691-.99h-.025a1.964,1.964,0,0,0-1.668.914L7.921,34.261,2.312,37.5A4.623,4.623,0,0,0,6.34,45.8ZM13.1,49.577A1.321,1.321,0,0,1,10.81,50.9l-3.3-5.721L9.8,43.856Zm-1.5-5.237-.66-1.144,1.144-.66.66,1.144ZM24.584,28.758l.913,1.581-.814,1.233L23.11,28.846Zm-6.93-4.764a.66.66,0,0,1,1.136.013l7.682,13.307a.66.66,0,0,1-.556.99,2.426,2.426,0,0,0-.362.061L17.428,24.289C17.6,24.07,17.621,24.049,17.654,23.993Zm-1.105,1.416,7.635,13.224-11.523,2.26-3.5-6.069ZM1.764,43.154a3.3,3.3,0,0,1,1.209-4.511l5.148-2.972,3.3,5.72L6.275,44.363A3.306,3.306,0,0,1,1.764,43.154Zm0,0" transform="translate(0 -20.879)" fill="#fff"/>
    <path id="Path_74" data-name="Path 74" d="M46.863,309.9a.661.661,0,0,0-.9-.242l-1.144.66a.661.661,0,0,1-.9-.242.66.66,0,0,0-1.144.661,1.984,1.984,0,0,0,2.707.725l1.144-.66A.661.661,0,0,0,46.863,309.9Zm0,0" transform="translate(-39.863 -289.126)" fill="#fff"/>
    <path id="Path_75" data-name="Path 75" d="M440.295,42.565l-3.68,2.048a.661.661,0,0,0,.642,1.154l3.68-2.048a.66.66,0,0,0-.642-1.154Zm0,0" transform="translate(-407.276 -39.675)" fill="#fff"/>
    <path id="Path_76" data-name="Path 76" d="M443.447,137.328l-2.552-.684a.66.66,0,1,0-.342,1.276l2.552.684a.66.66,0,1,0,.342-1.276Zm0,0" transform="translate(-410.814 -127.597)" fill="#fff"/>
    <path id="Path_77" data-name="Path 77" d="M384.2.49l-.684,2.552a.661.661,0,0,0,1.276.342l.684-2.552A.66.66,0,1,0,384.2.49Zm0,0" transform="translate(-358.017)" fill="#fff"/>
  </g>
</svg>
