<svg xmlns="http://www.w3.org/2000/svg" width="34" height="31" viewBox="0 0 34 31">
  <g id="quotation" transform="translate(-0.001)">
    <path id="Path_78" data-name="Path 78" d="M33.91,22.018a15.8,15.8,0,0,1-.584-7.166A12.156,12.156,0,0,0,25.112.572a.5.5,0,0,0-.626.321.494.494,0,0,0,.324.621,11.17,11.17,0,0,1,7.542,13.131l0,.022a16.882,16.882,0,0,0,.619,7.668.682.682,0,0,1-.125.668.716.716,0,0,1-.652.253,8.024,8.024,0,0,1-2.7-.811,3.819,3.819,0,0,0-3.378-.132,11.306,11.306,0,0,1-12.729-2.28,11.1,11.1,0,0,1-.089-15.658A11.232,11.232,0,0,1,21.143.991a11.621,11.621,0,0,1,1.745.1.495.495,0,1,0,.131-.98A12.672,12.672,0,0,0,21.123,0a12.279,12.279,0,0,0-10.8,6.876A12.158,12.158,0,0,0,.675,21.517a15.789,15.789,0,0,1-.584,7.166,1.667,1.667,0,0,0,.3,1.614,1.71,1.71,0,0,0,1.554.6,9.016,9.016,0,0,0,3.04-.92,2.811,2.811,0,0,1,2.487-.106A13.556,13.556,0,0,0,12.86,31a11.872,11.872,0,0,0,5.557-1.444,12.418,12.418,0,0,0,4.189-3.662.492.492,0,0,0-.115-.69.5.5,0,0,0-.695.114,11.419,11.419,0,0,1-3.852,3.367,11.316,11.316,0,0,1-10.052.292,3.818,3.818,0,0,0-3.378.132,8.022,8.022,0,0,1-2.7.811.717.717,0,0,1-.652-.253A.681.681,0,0,1,1.035,29a16.871,16.871,0,0,0,.619-7.667l0-.023a11.159,11.159,0,0,1,8.2-13.315,12.09,12.09,0,0,0,2.827,12.735,11.983,11.983,0,0,0,8.468,3.606,12.67,12.67,0,0,0,5.388-1.126,2.812,2.812,0,0,1,2.487.106,9.014,9.014,0,0,0,3.04.92,1.713,1.713,0,0,0,1.554-.6A1.667,1.667,0,0,0,33.91,22.018Zm0,0" transform="translate(0 0)" fill="#2d2e33"/>
    <path id="Path_79" data-name="Path 79" d="M219.9,128.16h-1.571a1.861,1.861,0,0,0-1.859,1.859V131.9a1.861,1.861,0,0,0,1.861,1.859h0a1.357,1.357,0,0,1,1.156.738,3.674,3.674,0,0,1,.35,1.192,1.145,1.145,0,0,0,1.232,1.09,1.217,1.217,0,0,0,1.054-.608,7.391,7.391,0,0,0,.552-5.9A2.882,2.882,0,0,0,219.9,128.16Zm1.365,7.5a.227.227,0,0,1-.253.112.221.221,0,0,1-.184-.2,4.668,4.668,0,0,0-.445-1.515,2.369,2.369,0,0,0-2.052-1.3h0a.862.862,0,0,1-.861-.861v-1.879a.862.862,0,0,1,.861-.861H219.9a1.882,1.882,0,0,1,1.814,1.374A6.429,6.429,0,0,1,221.267,135.66Zm0,0" transform="translate(-202.1 -119.74)" fill="#2d2e33"/>
    <path id="Path_80" data-name="Path 80" d="M328.391,130.019V131.9a1.861,1.861,0,0,0,1.857,1.859,1.366,1.366,0,0,1,1.16.738,3.668,3.668,0,0,1,.35,1.192,1.175,1.175,0,0,0,1.232,1.09,1.218,1.218,0,0,0,1.054-.608,7.39,7.39,0,0,0,.552-5.9,2.882,2.882,0,0,0-2.776-2.107h-1.571A1.861,1.861,0,0,0,328.391,130.019Zm1,0a.863.863,0,0,1,.862-.861h1.571a1.882,1.882,0,0,1,1.814,1.374,6.429,6.429,0,0,1-.449,5.129.228.228,0,0,1-.254.112.221.221,0,0,1-.183-.2,4.667,4.667,0,0,0-.445-1.515,2.369,2.369,0,0,0-2.052-1.3h0a.862.862,0,0,1-.862-.861Zm0,0" transform="translate(-306.588 -119.74)" fill="#2d2e33"/>
  </g>
</svg>
