<svg xmlns="http://www.w3.org/2000/svg" width="32" height="32" viewBox="0 0 32 32">
  <g id="rocket" transform="translate(0 -0.049)">
    <path id="Path_5" data-name="Path 5" d="M31.061.05A25.3,25.3,0,0,0,13.021,7.8L11.331,9.492l-1.8-1.8-5.306,1.5L0,13.421l3.7,3.7h0l.191.191L2.152,20.907,3.3,22.055.492,24.862l1.326,1.326,2.807-2.808,1.358,1.358L.038,30.684l1.326,1.326,5.944-5.945,1.358,1.358L5.859,30.231l1.326,1.326,2.807-2.808L11.14,29.9l3.592-1.741,3.893,3.893,4.227-4.228,1.5-5.3-1.8-1.8,1.691-1.691a25.755,25.755,0,0,0,5.62-8.061A25,25,0,0,0,32,.049ZM5.208,10.864,8.985,9.8,10,10.818,5.027,15.8,2.652,13.421Zm6.315,16.763-7.1-7.1L5.3,18.718l8.032,8.033ZM22.25,23.067,21.181,26.84,18.624,29.4l-2.375-2.376,4.977-4.978Zm.685-5.386-1.709,1.71h0l-6.3,6.3-8.57-8.571,6.3-6.3L14.365,9.11A23.465,23.465,0,0,1,30.1,1.947a23.419,23.419,0,0,1-7.167,15.733Z" fill="#fcf9f7"/>
    <path id="Path_6" data-name="Path 6" d="M258.117,131.635a4.274,4.274,0,1,0-6.043,0,4.283,4.283,0,0,0,6.043,0Zm-3.019-5.424a2.4,2.4,0,1,1-2.4,2.4C252.7,127.967,253.785,126.211,255.1,126.211Z" transform="translate(-235.145 -116.515)" fill="#fcf9f7"/>
  </g>
</svg>
