<svg xmlns="http://www.w3.org/2000/svg" width="33" height="32" viewBox="0 0 33 32">
  <g id="favorites" transform="translate(0 -3.81)">
    <g id="Group_34" data-name="Group 34" transform="translate(1.916 3.81)">
      <g id="Group_33" data-name="Group 33">
        <path id="Path_66" data-name="Path 66" d="M58.085,16.323a2.1,2.1,0,0,0,.55-2.189,2.151,2.151,0,0,0-1.756-1.453l-7.216-1.029a.434.434,0,0,1-.327-.234L46.109,5a2.193,2.193,0,0,0-3.9,0l-3.227,6.419a.435.435,0,0,1-.328.234l-7.216,1.029a2.151,2.151,0,0,0-1.756,1.453,2.1,2.1,0,0,0,.55,2.189l5.221,5a.422.422,0,0,1,.125.378l-1.233,7.055a2.1,2.1,0,0,0,.865,2.088A2.2,2.2,0,0,0,37.5,31l6.454-3.331a.442.442,0,0,1,.4,0L50.816,31a2.2,2.2,0,0,0,2.29-.163,2.1,2.1,0,0,0,.865-2.088L52.738,21.7a.422.422,0,0,1,.125-.378Zm-7.061,5.663,1.233,7.055a.413.413,0,0,1-.173.418.431.431,0,0,1-.458.032L45.171,26.16a2.211,2.211,0,0,0-2.024,0l-6.454,3.331a.43.43,0,0,1-.458-.032.413.413,0,0,1-.173-.418l1.233-7.055a2.11,2.11,0,0,0-.625-1.89l-5.221-5a.41.41,0,0,1-.11-.438.421.421,0,0,1,.351-.291L38.9,13.342a2.172,2.172,0,0,0,1.638-1.168l3.227-6.419a.439.439,0,0,1,.78,0h0l3.227,6.419a2.172,2.172,0,0,0,1.637,1.168l7.216,1.029a.421.421,0,0,1,.351.291.41.41,0,0,1-.11.438l-5.221,5A2.11,2.11,0,0,0,51.024,21.986Z" transform="translate(-29.574 -3.81)" fill="#2d2e33"/>
      </g>
    </g>
    <g id="Group_36" data-name="Group 36" transform="translate(24.353 4.862)">
      <g id="Group_35" data-name="Group 35">
        <path id="Path_67" data-name="Path 67" d="M380.318,20.212a.875.875,0,0,0-1.222.194l-.929,1.278a.875.875,0,0,0,1.416,1.028l.929-1.278A.875.875,0,0,0,380.318,20.212Z" transform="translate(-378.001 -20.045)" fill="#2d2e33"/>
      </g>
    </g>
    <g id="Group_38" data-name="Group 38" transform="translate(5.965 4.857)">
      <g id="Group_37" data-name="Group 37" transform="translate(0 0)">
        <path id="Path_68" data-name="Path 68" d="M95.1,21.605l-.929-1.278a.875.875,0,1,0-1.416,1.028l.929,1.278A.875.875,0,1,0,95.1,21.605Z" transform="translate(-92.59 -19.966)" fill="#2d2e33"/>
      </g>
    </g>
    <g id="Group_40" data-name="Group 40" transform="translate(0 22.414)">
      <g id="Group_39" data-name="Group 39" transform="translate(0)">
        <path id="Path_69" data-name="Path 69" d="M3.21,298.1a.875.875,0,0,0-1.1-.562l-1.5.488a.875.875,0,1,0,.541,1.664l1.5-.488A.875.875,0,0,0,3.21,298.1Z" transform="translate(0 -297.493)" fill="#2d2e33"/>
      </g>
    </g>
    <g id="Group_42" data-name="Group 42" transform="translate(15.626 32.48)">
      <g id="Group_41" data-name="Group 41">
        <path id="Path_70" data-name="Path 70" d="M243.374,456.786a.875.875,0,0,0-.875.875v1.58a.875.875,0,1,0,1.75,0v-1.58A.875.875,0,0,0,243.374,456.786Z" transform="translate(-242.499 -456.786)" fill="#2d2e33"/>
      </g>
    </g>
    <g id="Group_44" data-name="Group 44" transform="translate(29.747 22.415)">
      <g id="Group_43" data-name="Group 43">
        <path id="Path_71" data-name="Path 71" d="M464.431,298.044l-1.5-.488a.875.875,0,0,0-.541,1.664l1.5.488a.875.875,0,0,0,.541-1.664Z" transform="translate(-461.783 -297.513)" fill="#2d2e33"/>
      </g>
    </g>
  </g>
</svg>
