<svg id="toys" xmlns="http://www.w3.org/2000/svg" width="44.997" height="43.9" viewBox="0 0 44.997 43.9">
  <path id="Path_51" data-name="Path 51" d="M117.767,160.056c3.23,0,5.857-2.135,5.857-4.759a.732.732,0,0,0-1.464,0c0,1.63-1.586,2.986-3.661,3.248v-2.324a1.654,1.654,0,0,0,.222-.134l1.243-.887h0a1.773,1.773,0,0,0,.732-1.445A1.722,1.722,0,0,0,119.01,152h-2.485a1.722,1.722,0,0,0-1.686,1.753,1.773,1.773,0,0,0,.732,1.445l1.243.887a1.645,1.645,0,0,0,.222.134v2.324c-2.075-.262-3.661-1.618-3.661-3.248a.732.732,0,0,0-1.464,0C111.91,157.922,114.538,160.056,117.767,160.056Zm-1.346-6.047a.312.312,0,0,1-.118-.254.266.266,0,0,1,.222-.289h2.485a.266.266,0,0,1,.222.289.312.312,0,0,1-.118.254l-1.243.887a.17.17,0,0,1-.208,0Z" transform="translate(-102.512 -139.567)" fill="#fcf9f7"/>
  <circle id="Ellipse_16" data-name="Ellipse 16" cx="0.732" cy="0.732" r="0.732" transform="translate(18.856 10.974)" fill="#fcf9f7"/>
  <circle id="Ellipse_17" data-name="Ellipse 17" cx="0.732" cy="0.732" r="0.732" transform="translate(10.149 10.974)" fill="#fcf9f7"/>
  <path id="Path_52" data-name="Path 52" d="M354.929,253.857A2.929,2.929,0,1,0,352,250.929,2.929,2.929,0,0,0,354.929,253.857Zm0-4.393a1.464,1.464,0,1,1-1.464,1.464A1.464,1.464,0,0,1,354.929,249.464Z" transform="translate(-320.833 -226.784)" fill="#fcf9f7"/>
  <path id="Path_53" data-name="Path 53" d="M52.272,44.54H47.918V35.028a.732.732,0,0,0-.132-.419h0l-5.08-7.317a.722.722,0,0,0-1.189,0l-5.08,7.317h0a.732.732,0,0,0-.131.419v4.579a11.485,11.485,0,0,0-3.957-3.327,10.921,10.921,0,0,0,2.5-7.105,11.645,11.645,0,0,0-.532-3.518A5.133,5.133,0,0,0,32.7,16.063a5.07,5.07,0,0,0-5.294,2.754,14.426,14.426,0,0,0-8.348,0,5.069,5.069,0,0,0-9.543,1.455,5.134,5.134,0,0,0,2.637,5.385,11.645,11.645,0,0,0-.532,3.518,10.922,10.922,0,0,0,2.5,7.105,10.951,10.951,0,0,0-6.044,8.884c0,.009,0,.018,0,.027L8,46.2a.709.709,0,0,0,0,.1,4.394,4.394,0,0,0,2.9,3.847,7.242,7.242,0,0,0-.723,3.177c0,3.631,2.6,6.585,5.806,6.585a5.524,5.524,0,0,0,4.338-2.214,6.051,6.051,0,0,0,5.84,0A5.524,5.524,0,0,0,30.5,59.9a5.792,5.792,0,0,0,5.2-3.658H52.272A.729.729,0,0,0,53,55.515V45.271A.729.729,0,0,0,52.272,44.54ZM42.112,28.987,45.8,34.3H38.425ZM37.757,35.76h8.709v8.78H38.309a11.99,11.99,0,0,0-.552-2.2ZM35.58,50.138a4.38,4.38,0,0,0,1.781-1.208h1.121v2.927H36.159A7.1,7.1,0,0,0,35.58,50.138Zm1.367-4.829.065.938a2.925,2.925,0,0,1-2.25,2.61,5.6,5.6,0,0,0-3.553-2.07,12.794,12.794,0,0,0-2.753-7.644,10.6,10.6,0,0,0,2.817-1.767,9.614,9.614,0,0,1,5.674,7.934ZM31.943,17.468a3.634,3.634,0,0,1,3.5,2.7,3.671,3.671,0,0,1-1.673,4.115,10.212,10.212,0,0,0-2.032-2.876,10.5,10.5,0,0,0-2.97-2.062A3.632,3.632,0,0,1,31.943,17.468ZM10.9,21.126a3.624,3.624,0,0,1,6.8-1.779,10.493,10.493,0,0,0-2.97,2.062,10.21,10.21,0,0,0-2.032,2.876,3.672,3.672,0,0,1-1.8-3.159Zm4.848,1.327a10.352,10.352,0,0,1,7.49-2.79,10.352,10.352,0,0,1,7.49,2.79,9.347,9.347,0,0,1,2.671,6.721A9.347,9.347,0,0,1,30.723,35.9a10.351,10.351,0,0,1-7.49,2.79,10.351,10.351,0,0,1-7.49-2.79,9.347,9.347,0,0,1-2.671-6.721A9.347,9.347,0,0,1,15.744,22.453ZM9.454,46.246l.065-.938a9.614,9.614,0,0,1,5.674-7.934,10.6,10.6,0,0,0,2.83,1.773,12.847,12.847,0,0,0-2.75,7.639,5.6,5.6,0,0,0-3.556,2.074,2.925,2.925,0,0,1-2.263-2.613Zm6.53,12.2c-2.4,0-4.355-2.3-4.355-5.122S13.583,48.2,15.984,48.2s4.355,2.3,4.355,5.122S18.385,58.442,15.984,58.442Zm7.258-1.463a4.66,4.66,0,0,1-2.148-.533,7.25,7.25,0,0,0,.7-3.125c0-3.345-2.211-6.114-5.063-6.529a11,11,0,0,1,2.789-7.122,14.589,14.589,0,0,0,7.447,0,10.944,10.944,0,0,1,2.794,7.126c-2.852.415-5.064,3.183-5.064,6.529a7.25,7.25,0,0,0,.7,3.125A4.66,4.66,0,0,1,23.242,56.978ZM30.5,58.442c-2.4,0-4.355-2.3-4.355-5.122S28.1,48.2,30.5,48.2s4.355,2.3,4.355,5.122S32.9,58.442,30.5,58.442Zm5.806-5.122h2.9a.729.729,0,0,0,.726-.732V48.2a.729.729,0,0,0-.726-.732h-.984a4.386,4.386,0,0,0,.24-1.171.737.737,0,0,0,0-.1L38.451,46h2.934v8.78H36.159a7.416,7.416,0,0,0,.146-1.463Zm15.241,1.463H42.837V46h8.709Z" transform="translate(-8.001 -16.005)" fill="#fcf9f7"/>
  <path id="Path_54" data-name="Path 54" d="M408.732,365.858h4.393a.732.732,0,0,0,.655-1.06l-2.2-4.393a.732.732,0,0,0-1.31,0l-2.2,4.393a.732.732,0,0,0,.655,1.06Zm2.2-3.488,1.012,2.024h-2.024Z" transform="translate(-371.789 -328.542)" fill="#fcf9f7"/>
</svg>
