<svg xmlns="http://www.w3.org/2000/svg" width="18" height="18" viewBox="0 0 18 18">
  <path id="Icon_material-slow-motion-video" data-name="Icon material-slow-motion-video" d="M13,10.076,10.248,8v8.141L13,14.074l2.662-2Zm0,0L10.248,8v8.141L13,14.074l2.662-2Zm0,0L10.248,8v8.141L13,14.074l2.662-2ZM11.15,4.9V3.075a8.965,8.965,0,0,0-4.8,2L7.631,6.367A7.155,7.155,0,0,1,11.15,4.9ZM6.359,7.643,5.069,6.358A9.011,9.011,0,0,0,3.075,11.17H4.9A7.193,7.193,0,0,1,6.359,7.643ZM4.9,12.98H3.075a9.011,9.011,0,0,0,1.994,4.812L6.359,16.5A7.126,7.126,0,0,1,4.9,12.98Zm1.453,6.1a8.994,8.994,0,0,0,4.8,2V19.248a7.155,7.155,0,0,1-3.519-1.465L6.35,19.076Zm14.725-7a9.05,9.05,0,0,1-8.075,9V19.248A7.238,7.238,0,0,0,13,4.9V3.075A9.05,9.05,0,0,1,21.075,12.075Z" transform="translate(-3.075 -3.075)" fill="#fff"/>
</svg>
