<svg xmlns="http://www.w3.org/2000/svg" width="95" height="19" viewBox="0 0 95 19">
  <g id="Group_90" data-name="Group 90" transform="translate(-285 -2503)">
    <text id="View_more" data-name="View more" transform="translate(285 2518)" font-size="16" font-family="Urbanist-Medium, Urbanist" font-weight="500"><tspan x="0" y="0">View more</tspan></text>
    <path id="Icon_awesome-arrow-right" data-name="Icon awesome-arrow-right" d="M3.827,3.25l.446-.458a.472.472,0,0,1,.681,0l3.9,4a.5.5,0,0,1,0,.7L4.953,11.5a.472.472,0,0,1-.681,0l-.446-.458a.5.5,0,0,1,.008-.707l2.42-2.366H.482A.487.487,0,0,1,0,7.477V6.818a.487.487,0,0,1,.482-.495H6.255L3.835,3.957A.5.5,0,0,1,3.827,3.25Z" transform="translate(371 2505.353)"/>
  </g>
</svg>
